<?xml version="1.0" encoding="UTF-8"?>
<svg width="296px" height="605px" viewBox="0 0 296 605" version="1.1" xmlns="http://www.w3.org/2000/svg" xmlns:xlink="http://www.w3.org/1999/xlink">
    <!-- Generator: Sketch 49.1 (51147) - http://www.bohemiancoding.com/sketch -->
    <title>img_hero_phone</title>
    <desc>Created with Sketch.</desc>
    <defs></defs>
    <g id="img_hero_phone" stroke="none" stroke-width="1" fill="none" fill-rule="evenodd">
        <path d="M294.21328,173.027613 L295.107488,173.027613 C295.600409,173.027613 296,172.627091 296,172.133745 L296,129.172961 C296,128.679291 295.603926,128.279093 295.107488,128.279093 L294.21328,128.279093 L294.21328,44.7481636 C294.21328,20.0344353 274.214339,0 249.541408,0 L46.4585918,0 C21.7869985,0 1.78672032,20.0324189 1.78672032,44.7481636 L1.78672032,76.3708087 L0.892512076,76.3708087 C0.399591267,76.3708087 0,76.7749916 0,77.2704544 L0,99.9336876 C0,100.430548 0.396074065,100.833333 0.892512076,100.833333 L1.78672032,100.833333 L1.78672032,128.279093 L0.892512076,128.279093 C0.399591267,128.279093 0,128.679615 0,129.172961 L0,172.133745 C0,172.627415 0.396074065,173.027613 0.892512076,173.027613 L1.78672032,173.027613 L1.78672032,183.170611 L0.892512076,183.170611 C0.399591267,183.170611 0,183.571134 0,184.06448 L0,227.025264 C0,227.518934 0.396074065,227.919132 0.892512076,227.919132 L1.78672032,227.919132 L1.78672032,560.251837 C1.78672032,584.965565 21.7856612,605 46.4585918,605 L249.541408,605 C274.213002,605 294.21328,584.967581 294.21328,560.251837 L294.21328,173.027613 L294.21328,173.027613 Z M147.702213,586.503945 C160.201406,586.503945 170.334004,576.353083 170.334004,563.831361 C170.334004,551.309639 160.201406,541.158777 147.702213,541.158777 C135.203021,541.158777 125.070423,551.309639 125.070423,563.831361 C125.070423,576.353083 135.203021,586.503945 147.702213,586.503945 L147.702213,586.503945 Z M147.702213,584.117357 C158.885701,584.117357 167.95171,575.035007 167.95171,563.831361 C167.95171,552.627715 158.885701,543.545365 147.702213,543.545365 C136.518725,543.545365 127.452716,552.627715 127.452716,563.831361 C127.452716,575.035007 136.518725,584.117357 147.702213,584.117357 L147.702213,584.117357 Z M101.247485,42.9585799 C103.878894,42.9585799 106.012072,40.8215564 106.012072,38.1854043 C106.012072,35.5492523 103.878894,33.4122288 101.247485,33.4122288 C98.6160759,33.4122288 96.4828974,35.5492523 96.4828974,38.1854043 C96.4828974,40.8215564 98.6160759,42.9585799 101.247485,42.9585799 L101.247485,42.9585799 Z M148.297787,22.0759369 C149.942418,22.0759369 151.275654,20.7402972 151.275654,19.0927022 C151.275654,17.4451072 149.942418,16.1094675 148.297787,16.1094675 C146.653156,16.1094675 145.31992,17.4451072 145.31992,19.0927022 C145.31992,20.7402972 146.653156,22.0759369 148.297787,22.0759369 L148.297787,22.0759369 Z M126.853917,35.7988166 C125.539994,35.7988166 124.474849,36.8700104 124.474849,38.1854043 C124.474849,39.5034804 125.536804,40.5719921 126.853917,40.5719921 L169.741657,40.5719921 C171.055579,40.5719921 172.120724,39.5007983 172.120724,38.1854043 C172.120724,36.8673283 171.058769,35.7988166 169.741657,35.7988166 L126.853917,35.7988166 L126.853917,35.7988166 Z" id="phone" fill="#FFFFFF"></path>
        <rect id="Path" fill="#FFFFFF" x="19" y="73" width="258" height="459"></rect>
    </g>
</svg>