<svg xmlns="http://www.w3.org/2000/svg" width="71" height="71" viewBox="0 0 71 71">
  <path fill="#FFF" fill-rule="evenodd" d="M29,0 L42,0 C58.0162577,-2.94213882e-15 71,12.9837423 71,29 L71,42 C71,58.0162577 58.0162577,71 42,71 L29,71 C12.9837423,71 1.96142588e-15,58.0162577 0,42 L0,29 C-1.96142588e-15,12.9837423 12.9837423,2.94213882e-15 29,0 Z M36,42 C44.836556,42 52,34.836556 52,26 C52,17.163444 44.836556,10 36,10 C27.163444,10 20,17.163444 20,26 C20,34.836556 27.163444,42 36,42 Z M36,35 C31.0294373,35 27,30.9705627 27,26 C27,21.0294373 31.0294373,17 36,17 C40.9705627,17 45,21.0294373 45,26 C45,30.9705627 40.9705627,35 36,35 Z M45,47 L26,47 L26,52.5 C26,57.7467051 30.2532949,62 35.5,62 C40.7467051,62 45,57.7467051 45,52.5 L45,47 Z"/>
</svg>
